<svg xmlns="http://www.w3.org/2000/svg" viewBox="0 0 512 512">
  <path fill="#F9A825" d="M208.4 52.3c-41.2 13.7-77.1 41.1-99.8 77.2-18.8 29.6-28.6 63.1-44.2 94.4-26.7 53.2-74.5 104.9-61.6 163.5 8.7 39.7 39.9 72.6 78.8 86.6 38.8 13.9 83.6 8.1 120.3-12.7 30.2-17.1 55.2-43.5 87.3-54.6 52.3-17.8 110.5 14.9 163.8-.8 49.2-14.9 84.1-64.2 87.6-115.7 3.5-51.5-21.6-101.8-57.5-140.7-46.7-50.1-113.1-84.6-181.6-93.3-34.9-4.4-71-.7-103.1 15.9z"/>
  <path fill="#FFCC80" d="M178.8 149.5c-11.5 37.5-45.4 64.2-65.7 98.4-23.6 40.1-26.5 99.5 12.5 124.3 32.5 21 77.7 0 111.9 16.1 31.6 15 43.4 58.8 78.9 67.8 26.3 6.6 55.8-6.6 69.7-29.7 13.9-23.1 12.4-52.1 5.9-78-10.6-43-32.7-83.1-61.4-117-24.7-28.8-62-62-100.7-60.6-19.9.7-39.4 11.8-50.9 28.7z"/>
  <path fill="#6D4C41" d="M314.7 184.1c8 0 14.5 6.5 14.5 14.5s-6.5 14.5-14.5 14.5-14.5-6.5-14.5-14.5 6.5-14.5 14.5-14.5z"/>
  <path fill="#5D4037" d="M260.4 261.2c10.2 0 18.5 8.3 18.5 18.5s-8.3 18.5-18.5 18.5-18.5-8.3-18.5-18.5 8.3-18.5 18.5-18.5z"/>
  <path fill="#4E342E" d="M352.9 278.1c7 0 12.6 5.7 12.6 12.6s-5.7 12.6-12.6 12.6-12.6-5.7-12.6-12.6 5.7-12.6 12.6-12.6z"/>
  <path fill="#FFF3E0" d="M155.7 273.3c11.3-7.7 25.5-9.9 38.9-8.6 13.3 1.3 26.2 5.8 39.5 7.5 18 2.2 37.4-.8 52.3-11.4 3.8-2.7 8.9 2 6.1 5.8-12.6 17.3-33 27.7-53.9 30.7-20.9 2.9-42.3-.4-62.7-6.8-9.6-3-18.9-7-27.7-12.4-3.5-2.1-5-7.1-1.5-9.6z"/>
</svg>
